<svg width="40" height="36" viewBox="0 0 40 36" fill="none" xmlns="http://www.w3.org/2000/svg">
<path d="M20.0089 9.01562C14.3303 9.01562 9.74998 13.0234 9.74998 17.9922C9.74998 22.9609 14.3303 26.9687 20.0089 26.9687C25.6875 26.9687 30.2678 22.9609 30.2678 17.9922C30.2678 13.0234 25.6875 9.01562 20.0089 9.01562ZM20.0089 23.8281C16.3393 23.8281 13.3393 21.2109 13.3393 17.9922C13.3393 14.7734 16.3303 12.1562 20.0089 12.1562C23.6875 12.1562 26.6786 14.7734 26.6786 17.9922C26.6786 21.2109 23.6786 23.8281 20.0089 23.8281ZM33.0803 8.64844C33.0803 9.8125 32.0089 10.7422 30.6875 10.7422C29.3571 10.7422 28.2946 9.80469 28.2946 8.64844C28.2946 7.49219 29.3661 6.55469 30.6875 6.55469C32.0089 6.55469 33.0803 7.49219 33.0803 8.64844ZM39.875 10.7734C39.7232 7.96875 38.9911 5.48438 36.6428 3.4375C34.3036 1.39062 31.4643 0.75 28.2589 0.609375C24.9553 0.445312 15.0536 0.445312 11.75 0.609375C8.55355 0.742188 5.71427 1.38281 3.36605 3.42969C1.01784 5.47656 0.294625 7.96094 0.133911 10.7656C-0.0535889 13.6562 -0.0535889 22.3203 0.133911 25.2109C0.285697 28.0156 1.01784 30.5 3.36605 32.5469C5.71427 34.5938 8.54463 35.2344 11.75 35.375C15.0536 35.5391 24.9553 35.5391 28.2589 35.375C31.4643 35.2422 34.3036 34.6016 36.6428 32.5469C38.9821 30.5 39.7143 28.0156 39.875 25.2109C40.0625 22.3203 40.0625 13.6641 39.875 10.7734ZM35.6071 28.3125C34.9107 29.8438 33.5625 31.0234 31.8036 31.6406C29.1696 32.5547 22.9196 32.3438 20.0089 32.3438C17.0982 32.3438 10.8393 32.5469 8.21427 31.6406C6.46427 31.0312 5.11605 29.8516 4.4107 28.3125C3.36605 26.0078 3.60713 20.5391 3.60713 17.9922C3.60713 15.4453 3.37498 9.96875 4.4107 7.67188C5.10713 6.14062 6.45534 4.96094 8.21427 4.34375C10.8482 3.42969 17.0982 3.64062 20.0089 3.64062C22.9196 3.64062 29.1786 3.4375 31.8036 4.34375C33.5536 4.95312 34.9018 6.13281 35.6071 7.67188C36.6518 9.97656 36.4107 15.4453 36.4107 17.9922C36.4107 20.5391 36.6518 26.0156 35.6071 28.3125Z" fill="white"/>
</svg>
