<svg width="49" height="41" viewBox="0 0 49 41" fill="none" xmlns="http://www.w3.org/2000/svg">
<path d="M0.968 27.648C0.968 22.016 2.76 16.8533 6.344 12.16C9.928 7.46666 14.3653 3.712 19.656 0.895996L21.96 4.992C19.4 6.86933 17.096 8.87466 15.048 11.008C13 13.1413 11.2507 15.6587 9.8 18.56L14.536 22.4C16.4987 23.936 17.8213 25.472 18.504 27.008C19.1867 28.544 19.528 30.1653 19.528 31.872C19.528 34.5173 18.7173 36.608 17.096 38.144C15.4747 39.68 13.4267 40.448 10.952 40.448C9.33067 40.448 7.88 40.1493 6.6 39.552C5.32 38.9547 4.168 38.2293 3.144 37.376C1.69333 34.304 0.968 31.0613 0.968 27.648ZM27.592 27.648C27.592 22.016 29.384 16.8533 32.968 12.16C36.552 7.46666 40.9893 3.712 46.28 0.895996L48.584 4.992C46.024 6.86933 43.72 8.87466 41.672 11.008C39.624 13.1413 37.8747 15.6587 36.424 18.56L41.16 22.4C43.1227 23.936 44.4453 25.472 45.128 27.008C45.8107 28.544 46.152 30.1653 46.152 31.872C46.152 34.5173 45.3413 36.608 43.72 38.144C42.0987 39.68 40.0507 40.448 37.576 40.448C35.9547 40.448 34.504 40.1493 33.224 39.552C31.944 38.9547 30.792 38.2293 29.768 37.376C28.3173 34.304 27.592 31.0613 27.592 27.648Z" fill="url(#paint0_linear_105_11)"/>
<defs>
<linearGradient id="paint0_linear_105_11" x1="24" y1="-21" x2="24" y2="139" gradientUnits="userSpaceOnUse">
<stop stop-color="#FF00D6"/>
<stop offset="1" stop-color="#97007F"/>
</linearGradient>
</defs>
</svg>
