<svg width="90" height="90" viewBox="0 0 90 90" fill="none" xmlns="http://www.w3.org/2000/svg">
<path d="M60.4336 1.42536C58.7812 1.60446 56.0601 2.6567 54.5976 3.68655C53.7609 4.28357 53.0508 5.13431 53.1984 5.38058C53.2195 5.41789 53.1703 5.54476 53.0929 5.66416C53.0086 5.78357 52.882 6.04476 52.7976 6.23879C52.6219 6.66416 52.6148 6.7761 52.6992 10.0522L52.7554 12.2313L52.4812 12.3507C52.2211 12.4627 48.839 13.7761 38.3554 17.8358C35.6906 18.8731 31.7039 20.4179 29.4961 21.2686C27.2953 22.1194 24.989 23.0074 24.3844 23.2388L23.2804 23.6492L22.8867 23.4701C22.6687 23.3657 22.4297 23.2686 22.3594 23.2612C22.289 23.2463 22.0922 23.0597 21.9234 22.8358C21.3469 22.0746 20.1304 20.3358 20.0179 20.1045C19.814 19.6866 19.357 19.1343 19.0125 18.8955C18.8297 18.7612 18.457 18.5821 18.1828 18.5C17.9086 18.4104 17.4867 18.2388 17.2476 18.1119C16.8117 17.8955 16.7976 17.888 15.9468 17.9328C13.8937 18.0298 10.7156 19.2985 9.21794 20.6269C8.6906 21.0895 8.3531 21.5522 8.37419 21.791C8.38826 21.8955 8.31091 22.1269 8.21247 22.3134C8.0156 22.6716 7.80466 23.403 7.80466 23.7388C7.80466 23.8507 7.88201 24.3657 7.98044 24.888C8.07888 25.4104 8.19841 26.3433 8.2406 26.9701L8.31794 28.1119L8.00154 28.5895C7.68513 29.0597 7.60076 29.2089 7.12966 30.1119C5.66716 32.9328 5.24529 36.5746 5.98357 39.9477C6.14529 40.6716 6.56716 42.0224 6.72185 42.2761C6.76404 42.3582 6.8906 42.8433 6.98904 43.3582C7.25622 44.7089 9.23904 56.2313 9.63279 58.7313C10.364 63.3433 11.0531 65.5746 12.382 67.6866C13.6687 69.7239 15.3984 70.8731 17.564 71.1194C18.3164 71.2015 20.489 71.1866 20.2359 71.1045C20.1304 71.0672 20.1797 71.0597 20.3554 71.0821C21.1219 71.1716 23.1258 70.6194 24.2015 70.0075C25.6219 69.2089 26.8101 68.0672 27.7242 66.6045C27.907 66.3209 28.0547 66.0448 28.0547 65.9925C28.0547 65.9478 28.0758 65.8955 28.1109 65.8806C28.1812 65.8433 28.6453 64.8134 28.814 64.291C29.1375 63.2985 29.4117 61.6343 29.3625 60.9328C29.3344 60.5672 29.3414 60.5373 29.3906 60.7463C29.4398 60.9403 29.4469 60.8433 29.4258 60.3731C29.4117 60.0075 29.4258 59.8358 29.4539 59.9627C29.4961 60.1418 29.5172 60.0672 29.5594 59.5895C29.6508 58.4851 30.0586 56.2239 30.3469 55.1492C30.6844 53.9179 31.5562 53.2089 32.4 53.4776C33.089 53.7015 33.7429 53.8209 34.5937 53.8657C35.2547 53.903 35.3953 53.9254 35.1562 53.9627C34.9594 53.9925 35.1914 54.0149 35.7679 54.0149C38.482 54.0522 40.1765 53.2761 42.2648 51.0448C43.0383 50.2239 43.2984 49.7985 43.3617 49.2686L43.4039 48.8955L43.9383 48.7313C45.1125 48.3657 49.7601 47.1567 51.0469 46.8806C52.8258 46.4925 54.2039 46.2836 54.2672 46.388C54.4219 46.6269 55.4836 46.8657 56.4258 46.8657C57.4312 46.8582 59.3437 46.4552 59.2383 46.2612C59.175 46.1642 59.4 46.1791 59.9625 46.306C62.339 46.8358 63.5062 48.3955 63.5062 51.0448C63.5062 52.0895 63.3797 52.7463 63.007 53.6194C62.2547 55.3806 60.5601 57.1492 57.8109 59.0597C57.3047 59.4104 55.5328 60.5597 53.8804 61.6119C49.4719 64.4104 47.6578 65.7089 45.8086 67.403C42.7359 70.2164 40.8304 73.4478 40.0922 77.0895C39.9234 77.9254 39.9094 78.1791 39.9094 79.5149C39.9094 80.9328 39.9164 81.0448 40.0992 81.6791C41.0695 85 44.0437 87.1343 49.2539 88.2463C54.5273 89.3731 62.0789 89.3433 71.0437 88.1642C73.6523 87.8209 77.4562 87.2015 77.625 87.0895C77.6883 87.0522 77.6883 86.9254 77.6179 86.5746C77.5758 86.3284 77.5125 86.1194 77.4843 86.1194C77.4562 86.1194 77.182 86.1716 76.8797 86.2313C73.5398 86.903 67.8867 87.6045 63.2109 87.9254C61.3898 88.0522 55.575 88.0522 54.1758 87.9254C48.1008 87.3731 44.4656 86.1194 42.4125 83.8507C40.8656 82.1418 40.4719 80.1791 41.0625 77.1716C41.7234 73.7761 43.6711 70.6119 46.7859 67.8433C48.4523 66.3582 50.1679 65.1492 54.2812 62.5373C58.8375 59.6492 60.3 58.5746 61.7836 57.0672C62.9578 55.8657 63.9211 54.2537 64.2797 52.8731C64.4906 52.0597 64.5047 50.0895 64.3078 49.291C63.8578 47.4477 62.782 46.2388 60.9258 45.4776C60.6937 45.3806 60.5601 45.306 60.6304 45.2985C60.6937 45.2985 60.75 45.2612 60.75 45.2239C60.75 45.1791 60.7922 45.1492 60.8414 45.1492C60.9328 45.1492 61.4531 44.694 61.9453 44.1791C62.2969 43.8134 62.7961 43.1343 63.1054 42.6119C63.3445 42.2089 64.0195 41.4925 64.1672 41.4925C64.2304 41.4925 64.2515 41.4552 64.2234 41.403C64.139 41.2612 64.7859 41.7761 65.7351 42.6045C66.2203 43.0373 67.3664 44.1791 68.2734 45.1418C69.1804 46.1119 70.1156 47.0597 70.3476 47.2463C71.6625 48.3134 73.2797 49.0895 75.0445 49.4925C75.6422 49.6269 76.0218 49.6567 77.2664 49.6642C78.0961 49.6716 78.7148 49.6492 78.6375 49.6194C78.5601 49.5821 78.6375 49.5746 78.8273 49.597C79.4601 49.6791 81.225 49.194 82.2234 48.6567C83.1023 48.1866 84.1289 47.4179 84.7195 46.7985C85.2609 46.2313 85.7883 45.4851 85.8867 45.1492C85.9148 45.0448 85.964 44.9477 85.9851 44.9254C86.0554 44.8731 86.2523 44.1642 86.3718 43.5373C86.4492 43.1492 86.4703 42.5746 86.4562 41.3358C86.4422 39.9179 86.4211 39.5448 86.2804 38.8806C85.8445 36.7686 84.8601 34.2836 83.3343 31.4776C83.1023 31.0522 82.5609 29.9851 82.125 29.1045C81.689 28.2239 80.5359 25.903 79.5586 23.9552C77.5125 19.8731 77.1609 19.1418 77.2734 19.2164C77.3297 19.2537 77.3437 19.2239 77.3156 19.1343C77.2945 19.0522 77.2453 18.7612 77.2031 18.4701C77.0554 17.4701 76.6406 16.0448 76.1836 14.9627C75.8742 14.2164 75.7336 13.9254 75.4101 13.3582C74.1304 11.1194 72.7101 9.61939 70.5656 8.25372C69.6445 7.66416 68.8429 7.29103 67.4156 6.76118L66.3398 6.36566L65.7984 5.51491C65.4961 5.04476 65.0883 4.32834 64.8914 3.91789C64.6945 3.50745 64.4554 3.05969 64.357 2.92536C64.0828 2.5373 63.5695 2.17909 63.0351 2.00745C62.7679 1.91789 62.3531 1.75371 62.1211 1.63431C61.65 1.40297 61.1719 1.34327 60.4336 1.42536ZM51.2929 45.0298C51.4898 45.0895 51.7078 45.1567 51.7781 45.194C51.8836 45.2313 51.8976 45.2239 51.8554 45.1492C51.8203 45.0821 51.8273 45.0672 51.8836 45.1045C51.9258 45.1343 51.9469 45.1866 51.9258 45.2239C51.8906 45.2836 52.1648 45.4179 52.4109 45.4627C52.4812 45.4776 51.7711 45.6642 50.8289 45.8806C49.8867 46.097 47.9461 46.5821 46.5258 46.9477C45.0984 47.3209 43.9172 47.6045 43.889 47.5821C43.8679 47.5597 43.8961 47.5373 43.9594 47.5373C44.0156 47.5373 44.1633 47.4403 44.2758 47.3209C44.6695 46.9254 45.689 46.4701 48.0937 45.6269C48.5015 45.4851 48.8953 45.3358 48.9726 45.291C49.2469 45.1492 50.175 44.9403 50.5547 44.9328C50.7656 44.9328 51.1031 44.9701 51.2929 45.0298ZM52.207 45.2985C52.2281 45.3433 52.2 45.3507 52.1437 45.3283C52.0172 45.2761 51.9961 45.2239 52.0945 45.2239C52.1367 45.2239 52.1859 45.2537 52.207 45.2985ZM29.5101 59.194C29.489 59.2463 29.475 59.2089 29.475 59.1045C29.475 59 29.489 58.9627 29.5101 59.0075C29.5242 59.0597 29.5242 59.1492 29.5101 59.194ZM29.2992 61.5821C29.2781 61.6343 29.264 61.597 29.264 61.4925C29.264 61.388 29.2781 61.3507 29.2992 61.3955C29.3133 61.4478 29.3133 61.5373 29.2992 61.5821ZM29.2289 61.8806C29.2078 61.9403 29.1867 61.9179 29.1867 61.8358C29.1797 61.7537 29.2008 61.7089 29.2219 61.7388C29.2429 61.7612 29.25 61.8283 29.2289 61.8806ZM20.7211 71.0149C20.7 71.0373 20.6367 71.0448 20.5875 71.0224C20.5312 71 20.5523 70.9776 20.6297 70.9776C20.707 70.9701 20.7492 70.9925 20.7211 71.0149Z" fill="url(#paint0_linear_90_6)"/>
<path d="M34.7804 43.5523C33.8242 43.9262 32.8846 44.0861 31.9615 44.0319C31.0508 43.9728 30.2543 43.7116 29.572 43.2483C28.8897 42.785 28.3932 42.1559 28.0824 41.3612C27.8639 40.8024 27.9493 40.3252 28.3386 39.9296C28.7355 39.5167 29.3748 39.1378 30.2564 38.7931C30.2969 39.0063 30.3948 39.3116 30.5502 39.709C30.8561 40.4913 31.2879 41.0096 31.8455 41.264C32.3982 41.506 33.0658 41.474 33.8481 41.1681C34.618 40.867 35.1142 40.4153 35.3367 39.8129C35.5717 39.2056 35.5241 38.4798 35.1939 37.6354L32.9067 31.7866L31.1372 32.4786C30.5163 32.7214 29.9754 32.711 29.5144 32.4475C29.061 32.1667 28.6789 31.6289 28.3682 30.8342L33.3787 28.8748C33.7512 28.7291 34.1164 28.7295 34.4743 28.8758C34.8273 29.0098 35.0718 29.2506 35.2078 29.5983L37.932 36.5646C38.3059 37.5208 38.4174 38.465 38.2666 39.3973C38.1282 40.3247 37.7528 41.1587 37.1405 41.8993C36.5357 42.6225 35.749 43.1735 34.7804 43.5523ZM47.0756 38.7442C46.0574 39.1424 45.0421 39.3104 44.0299 39.2481C43.0129 39.1733 42.1162 38.894 41.34 38.4102C40.5714 37.909 40.0317 37.2611 39.7209 36.4663L37.9873 32.0333C37.6766 31.2385 37.636 30.4026 37.8656 29.5253C38.1028 28.6309 38.5721 27.8174 39.2735 27.085C39.9701 26.3401 40.8275 25.7686 41.8458 25.3704C42.864 24.9723 43.8817 24.8105 44.8987 24.8853C45.9109 24.9476 46.8014 25.2293 47.57 25.7304C48.3462 26.2143 48.8897 26.8536 49.2005 27.6483L50.934 32.0814C51.2448 32.8762 51.2816 33.7208 51.0444 34.6153C50.8148 35.4925 50.3517 36.3035 49.6551 37.0483C48.9537 37.7808 48.0939 38.3461 47.0756 38.7442ZM46.1433 36.3601C46.9877 36.0299 47.5992 35.5617 47.9777 34.9555C48.3563 34.3493 48.4218 33.7296 48.1741 33.0963L46.4842 28.775C46.2366 28.1417 45.7681 27.7307 45.0787 27.5422C44.3894 27.3536 43.6225 27.4244 42.7781 27.7546C41.9337 28.0848 41.3222 28.553 40.9437 29.1592C40.5651 29.7654 40.4996 30.3851 40.7473 31.0184L42.4372 35.3397C42.6848 35.973 43.1533 36.384 43.8427 36.5725C44.532 36.7611 45.2989 36.6903 46.1433 36.3601ZM55.2973 29.9672L47.4625 23.4961C47.5575 23.3731 47.7257 23.2357 47.9671 23.0841C48.216 22.9152 48.4522 22.787 48.6757 22.6996C49.1724 22.5054 49.6297 22.4482 50.0475 22.5282C50.4605 22.5958 50.8786 22.8045 51.3017 23.1545L55.5854 26.8051L55.4783 28.1784L55.7382 28.1841L56.3495 21.1805C56.4366 20.1586 56.9769 19.4534 57.9703 19.0649C58.1938 18.9775 58.4481 18.9139 58.7332 18.874C59.0258 18.8168 59.2487 18.8012 59.4021 18.8272L58.0427 28.9151L59.1498 31.7463C59.4023 32.392 59.3582 32.9748 59.0174 33.4946C58.6891 34.0095 58.0779 34.4418 57.1838 34.7914L55.2973 29.9672Z" fill="#010034"/>
<defs>
<linearGradient id="paint0_linear_90_6" x1="46.0438" y1="89.0705" x2="46.0438" y2="1.3904" gradientUnits="userSpaceOnUse">
<stop stop-color="#010041"/>
<stop offset="0.54" stop-color="#BD00FF"/>
<stop offset="1" stop-color="#FF00D6"/>
</linearGradient>
</defs>
</svg>
