<svg width="40" height="41" viewBox="0 0 40 41" fill="none" xmlns="http://www.w3.org/2000/svg">
<path d="M20 0C8.95161 0 0 9.08429 0 20.2964C0 31.5086 8.95161 40.5929 20 40.5929C31.0484 40.5929 40 31.5086 40 20.2964C40 9.08429 31.0484 0 20 0ZM29.2742 13.8065C28.9758 17.0146 27.6694 24.8059 27.0081 28.3987C26.7258 29.9209 26.1774 30.4283 25.6452 30.4774C24.4839 30.5838 23.6048 29.6999 22.4758 28.947C20.7177 27.7767 19.7177 27.0483 18.0161 25.9025C16.0403 24.5849 17.3226 23.8565 18.4435 22.6698C18.7419 22.3588 23.8548 17.6366 23.9516 17.2111C23.9677 17.1538 23.9758 16.9573 23.8548 16.851C23.7339 16.7446 23.5645 16.7855 23.4435 16.81C23.2661 16.8482 20.4543 18.7333 15.0081 22.4652C14.2124 23.0217 13.4892 23.2918 12.8387 23.2754C12.121 23.2591 10.75 22.8662 9.72581 22.5307C8.47581 22.1215 7.47581 21.9005 7.56452 21.1967C7.60753 20.8311 8.10484 20.4574 9.05645 20.0755C14.8844 17.5002 18.7715 15.8007 20.7177 14.9768C26.2742 12.6362 27.4274 12.227 28.1774 12.2106C28.3468 12.2106 28.7097 12.2515 28.9516 12.4479C29.1095 12.5888 29.2101 12.7843 29.2339 12.9963C29.2775 13.2639 29.291 13.5357 29.2742 13.8065Z" fill="white"/>
</svg>
